<?xml version="1.0" standalone="no"?>
<!DOCTYPE svg PUBLIC "-//W3C//DTD SVG 20010904//EN"
 "http://www.w3.org/TR/2001/REC-SVG-20010904/DTD/svg10.dtd">
<svg version="1.0" xmlns="http://www.w3.org/2000/svg"
 width="1280.000000pt" height="640.000000pt" viewBox="0 0 1280.000000 640.000000"
 preserveAspectRatio="xMidYMid meet">
<metadata>
Created by potrace 1.15, written by Peter Selinger 2001-2017
</metadata>
<g transform="translate(0.000000,640.000000) scale(0.100000,-0.100000)"
fill="#000000" stroke="none">
<path d="M1530 5545 c-30 -8 -98 -19 -150 -25 -52 -6 -126 -18 -165 -25 -38
-8 -122 -22 -185 -31 -138 -21 -383 -78 -445 -103 -45 -19 -93 -31 -120 -31
-16 0 -71 -20 -122 -45 -50 -25 -97 -45 -103 -45 -20 0 -85 -38 -114 -66 -77
-78 -82 -152 -15 -216 l40 -38 -34 0 c-47 0 -95 -18 -107 -40 -20 -37 -12 -94
18 -130 16 -19 34 -44 40 -56 12 -23 145 -104 171 -104 9 0 39 -23 67 -52 81
-84 203 -181 284 -227 107 -61 158 -97 235 -169 37 -35 100 -88 139 -117 72
-53 186 -161 186 -175 0 -5 47 -50 105 -100 102 -88 148 -121 307 -215 136
-80 247 -177 335 -293 31 -41 86 -97 122 -126 63 -51 326 -212 536 -329 107
-59 107 -59 296 -212 140 -113 160 -128 244 -181 33 -21 81 -54 107 -73 26
-20 62 -45 80 -57 18 -11 110 -72 203 -135 145 -98 239 -156 445 -276 54 -32
166 -87 260 -127 76 -33 134 -55 370 -140 36 -13 92 -30 125 -38 78 -20 356
-94 420 -113 28 -9 97 -26 154 -40 57 -13 122 -33 145 -45 23 -11 52 -20 63
-20 11 0 32 -9 46 -20 14 -11 34 -20 45 -20 10 0 40 -16 65 -35 25 -19 48 -35
50 -35 3 0 28 -16 57 -35 29 -19 56 -35 61 -35 6 0 29 -20 53 -45 27 -27 53
-45 67 -45 12 0 40 -9 63 -19 23 -11 56 -25 74 -31 17 -7 32 -16 32 -21 0 -13
51 -34 168 -69 57 -17 112 -40 123 -51 38 -38 111 -13 124 41 4 19 0 31 -14
44 -12 11 -21 32 -21 49 0 16 -8 42 -17 58 -11 18 -14 32 -8 38 12 10 198 -11
217 -25 7 -6 101 -11 223 -12 116 -2 289 -7 385 -12 313 -17 516 -11 650 19
25 5 82 14 128 20 45 6 93 17 105 26 12 8 29 15 39 15 10 0 52 16 94 36 79 37
195 64 229 53 6 -1 36 3 68 10 47 10 138 11 450 2 558 -16 762 -4 781 45 10
25 7 42 -6 41 -7 0 -29 1 -48 2 -27 1 -31 4 -20 11 8 5 29 10 46 10 55 0 69
20 68 96 -1 45 -7 71 -16 78 -7 6 -12 18 -10 27 6 30 -36 54 -99 55 -92 2 -87
8 31 45 44 14 45 15 50 63 5 47 8 52 50 76 45 26 65 60 36 60 -8 0 -41 -7 -73
-15 -109 -29 -106 -11 11 57 39 23 85 53 102 67 17 14 61 49 98 76 36 28 102
77 146 110 43 33 100 76 127 95 26 19 108 84 182 145 74 60 145 117 157 125
12 8 60 47 106 85 45 39 95 76 109 82 18 8 63 8 155 2 381 -27 1045 -37 1219
-20 160 17 194 22 201 32 3 5 13 9 23 9 10 0 61 14 112 31 52 17 123 34 159
37 l65 7 7 45 c3 25 4 67 1 93 -5 42 -10 49 -37 61 -52 22 -86 70 -86 122 0
25 -5 54 -10 64 -7 14 -7 25 1 38 17 27 -23 154 -53 167 -14 6 -25 22 -29 43
-4 19 -21 48 -38 66 -17 18 -31 37 -31 44 0 7 -12 12 -27 12 -43 0 -74 11 -71
25 2 7 -10 25 -25 39 l-28 26 20 27 c10 16 22 52 25 81 6 49 5 53 -19 62 -17
6 -25 17 -25 34 0 13 -6 29 -14 35 -15 13 -23 47 -31 131 -5 52 3 112 27 188
15 52 -7 131 -41 144 -14 6 -34 14 -43 19 -10 5 -30 9 -46 9 -15 0 -32 4 -38
9 -5 5 -74 15 -154 21 -150 12 -167 11 -305 -30 -16 -5 -56 -16 -88 -25 -32
-10 -63 -22 -70 -29 -7 -7 -32 -22 -57 -35 -25 -12 -52 -26 -60 -30 -8 -5 -32
-17 -53 -27 -21 -11 -48 -29 -59 -41 -12 -13 -27 -23 -33 -23 -7 0 -20 -9 -30
-20 -10 -11 -27 -22 -39 -26 -48 -14 -131 -60 -165 -91 -20 -18 -66 -54 -103
-79 -38 -25 -104 -80 -147 -122 -44 -42 -97 -87 -118 -100 -40 -24 -123 -98
-123 -110 0 -4 -8 -12 -19 -17 -10 -6 -43 -28 -72 -50 -59 -44 -179 -108 -274
-145 -33 -13 -80 -37 -104 -52 -25 -15 -52 -28 -62 -28 -16 0 -59 -16 -126
-46 -121 -53 -132 -56 -195 -58 -26 -1 -55 -9 -65 -17 -29 -25 -99 -43 -157
-40 -28 1 -26 4 50 79 44 42 103 95 131 117 56 41 71 66 54 87 -6 7 -32 39
-57 71 -64 79 -128 111 -205 103 -32 -3 -70 -11 -85 -17 -69 -27 -104 -44
-104 -51 0 -3 -15 -15 -32 -25 -51 -30 -82 -101 -75 -171 3 -32 2 -79 -1 -106
l-7 -49 -95 -34 -95 -34 -205 5 c-229 6 -384 19 -403 34 -7 6 -54 15 -106 21
-51 7 -102 16 -112 21 -10 6 -34 10 -53 10 -62 0 -288 83 -365 135 -98 64
-406 220 -594 300 -134 58 -158 71 -164 93 -7 30 7 56 33 61 21 3 54 30 54 42
0 5 -18 35 -40 66 -22 32 -40 69 -40 83 0 36 -12 50 -56 65 -36 13 -39 16 -36
48 3 39 -17 62 -48 54 -17 -4 -20 0 -20 29 0 26 -5 37 -22 43 -42 16 -68 50
-68 86 0 25 -8 40 -30 58 -16 14 -30 30 -30 35 0 14 -28 23 -35 12 -14 -23
-33 -6 -64 55 -18 36 -38 65 -47 65 -8 0 -17 7 -20 15 -4 8 -24 25 -45 37 -21
12 -39 28 -39 35 0 7 -11 13 -25 13 -28 0 -62 32 -81 78 -8 18 -26 37 -39 42
-28 10 -45 45 -45 89 0 36 -22 55 -55 48 -34 -6 -55 25 -55 81 l0 44 -44 -6
c-42 -7 -46 -5 -60 21 -8 16 -27 35 -43 42 -15 7 -35 17 -43 22 -8 5 -20 12
-27 15 -22 11 -62 -28 -99 -94 -20 -37 -42 -74 -49 -82 -7 -8 -23 -40 -36 -70
-12 -30 -42 -83 -66 -116 -24 -34 -43 -66 -43 -72 0 -6 -6 -15 -14 -19 -7 -4
-19 -25 -25 -46 -7 -21 -23 -50 -36 -65 -13 -15 -33 -46 -44 -69 -27 -51 -45
-66 -98 -83 -67 -21 -141 -9 -237 39 -47 23 -91 47 -98 54 -7 7 -44 23 -83 36
-38 13 -77 30 -85 37 -8 7 -27 16 -43 19 -15 4 -30 11 -33 16 -3 5 -16 9 -29
9 -25 0 -100 26 -215 75 -36 15 -74 31 -85 35 -11 4 -45 18 -75 30 -30 12 -64
26 -75 31 -11 4 -78 31 -150 59 -71 28 -148 59 -170 70 -22 10 -51 22 -65 26
-14 4 -59 23 -100 42 -137 63 -213 92 -242 92 -20 0 -160 50 -200 71 -10 5
-25 9 -34 9 -15 0 -32 7 -119 46 -16 7 -57 20 -90 29 -103 29 -259 77 -292 91
-17 8 -38 14 -46 14 -9 0 -19 5 -22 10 -3 6 -15 10 -26 10 -10 0 -36 9 -56 20
-21 11 -52 20 -70 20 -18 0 -88 18 -155 40 -68 22 -133 40 -145 40 -13 0 -31
4 -41 9 -39 20 -69 30 -107 35 -22 3 -60 10 -85 15 -162 34 -233 42 -375 46
-114 2 -176 0 -215 -10z"/>
</g>
</svg>
