<?xml version="1.0" encoding="UTF-8"?>
<svg id="Layer_1" data-name="Layer 1" xmlns="http://www.w3.org/2000/svg" width="65.57" height="71.02" viewBox="0 0 65.57 71.02">
  <defs>
    <style>
      .cls-1 {
        fill: none;
        stroke: #000;
        stroke-miterlimit: 10;
      }
    </style>
  </defs>
  <path class="cls-1" d="M53.23,24.18c-6.54,0-11.84-5.3-11.84-11.84S46.69.5,53.23.5s11.84,5.3,11.84,11.84-5.3,11.84-11.84,11.84c0,0-.26,11.33-10.15,11.33h-18.47c-10.67,0-12.28,11.33-12.28,11.33,6.54,0,11.84,5.3,11.84,11.84s-5.3,11.84-11.84,11.84S.5,65.22.5,58.68s5.3-11.84,11.84-11.84v-22.67c6.54,0,11.84-5.3,11.84-11.84,0-6.54-5.3-11.84-11.84-11.84S.5,5.8.5,12.34s5.3,11.84,11.84,11.84"/>
</svg>