<?xml version="1.0" encoding="UTF-8"?>
<svg id="Layer_1" data-name="Layer 1" xmlns="http://www.w3.org/2000/svg" width="66.7" height="66.26" viewBox="0 0 66.7 66.26">
  <defs>
    <style>
      .cls-1 {
        fill: none;
        stroke: #000;
        stroke-miterlimit: 10;
      }
    </style>
  </defs>
  <path class="cls-1" d="M.51,5.95c.48,10.73,5.88,52.06,60.54,59.79.55.08,1.11-.15,1.44-.6,1.56-2.11,5.51-8.73,2.77-18.86-.33-1.21-1.25-2.16-2.41-2.63-4.2-1.7-14.31-5.52-16.59-3.84,0,0-.6.6-1.43,1.48-1.83,1.92-4.76,5.15-4.88,6.2-.17,1.54-21.16-19.11-20.31-21.84l5.52-4.62c.5-.42.76-1.05.68-1.7-.43-3.66-3.15-16.87-4.83-17.23C18.09.72,10.54-.51,2.63,1.77,1.02,2.23.43,4.28.51,5.95Z"/>
</svg>