<?xml version="1.0" encoding="UTF-8"?>
<svg id="Layer_1" data-name="Layer 1" xmlns="http://www.w3.org/2000/svg" width="77.53" height="77.01" viewBox="0 0 77.53 77.01">
  <defs>
    <style>
      .cls-1 {
        fill: none;
        stroke: #000;
        stroke-miterlimit: 10;
      }
    </style>
  </defs>
  <path class="cls-1" d="M.51,6.85c.55,12.5,6.84,60.64,70.52,69.64.65.09,1.29-.18,1.68-.7,1.81-2.45,6.42-10.17,3.23-21.96-.38-1.4-1.45-2.52-2.8-3.06-4.89-1.98-16.67-6.43-19.33-4.48,0,0-.7.7-1.67,1.72-2.13,2.23-5.55,6-5.68,7.23-.2,1.79-24.65-22.26-23.65-25.44l6.43-5.38c.58-.49.88-1.22.79-1.98-.5-4.27-3.67-19.66-5.63-20.07C20.99.75,12.19-.68,2.99,1.97,1.11,2.52.42,4.9.51,6.85Z"/>
</svg>