<svg xmlns="http://www.w3.org/2000/svg" fill="none" viewBox="0 0 35 121"><path fill="#EFF1F4" d="M23.89 65.4c-2.55 2.4-3.75 5.62-3.75 9.64 0 2.41.13 4.69.67 6.7l2.68 14.2c.4 2.55.67 4.7.67 6.3 0 5.9-1.88 10.32-5.5 13.54-3.62 3.21-8.57 4.82-14.74 4.82H.44v-2.68h3.48c5.63 0 9.92-1.34 12.87-4.15 2.94-2.68 4.55-6.7 4.55-11.93 0-1.6-.27-3.62-.67-6.03L18 81.74c-.53-2.55-.8-4.82-.8-6.7 0-4.02 1.07-7.24 3.21-9.78 2.15-2.55 5.36-4.16 9.52-4.96-4.16-.8-7.37-2.41-9.52-4.96-2.14-2.54-3.21-5.9-3.21-9.91 0-1.88.27-4.02.8-6.57l2.68-14.07c.4-2.41.67-4.42.67-6.03 0-5.1-1.6-9.11-4.55-11.93-2.95-2.68-7.24-4.15-12.87-4.15H.44V0h3.48c6.17 0 11.12 1.6 14.74 4.82 3.62 3.22 5.5 7.78 5.5 13.54 0 1.74-.27 3.88-.67 6.3l-2.68 14.2c-.54 2.41-.8 4.69-.8 6.7 0 4.15 1.2 7.37 3.88 9.65 2.54 2.41 6.16 3.62 10.99 3.75v2.68c-4.83.27-8.45 1.47-11 3.75Z"/></svg>