<?xml version="1.0" encoding="utf-8"?>
<!-- Generator: Adobe Illustrator 28.4.1, SVG Export Plug-In . SVG Version: 6.00 Build 0)  -->
<svg version="1.1" id="Layer_1" xmlns="http://www.w3.org/2000/svg" xmlns:xlink="http://www.w3.org/1999/xlink" x="0px" y="0px"
	 viewBox="0 0 1280 853" style="enable-background:new 0 0 1280 853;" xml:space="preserve">
<g>
	<path d="M714.8,746c-14.8-29.4-28.2-56-41.4-82.6c-9-18.2-6.6-28.7,16.4-34.4c173.2-42.9,208.8-97.8,275-178.5
		c29.7-36.2,70.7-25.2,72,28c1.6,63.3,28.2,107,77.6,124.2c0-9.4,1.7-18.3-0.3-26.4c-7.1-28.7-3.1-54,14.2-78.9
		c17.1-24.5,24-51.9,13.1-82.4c-2.4-6.8,2.3-20.3,8.3-25c24.8-19.5,34.7-44.7,37.2-75.1c4.8-58.5,5.3-58.5,32.7-101.9
		c-9.1-0.5-16.5-2.7-22.9-1c-52.7,13.6-94.8,40.4-119.6,91.7c-6.3,12.9-20.7,24.8-34.2,30.7c-17.6,7.7-37.9,10.8-57.3,12.6
		c-208.8,19.8-295.9-2.7-494.1-78.3c-113.9-43.4-232.1-60.8-354.6-41.9c-33.4,5.1-43.1,19.8-39,50.8
		c10.9,83.4,56.5,147.8,111.7,207.2c6.3,6.8,12.7,13.7,20.2,19c45.7,32.5,81.5,69.4,91,129.9c5.7,36.2,28.5,51.4,56.1,59.3
		c1.8-20.4,2.8-40.6,5.7-60.6c2.7-18.2,12.3-24.3,32.1-19.2c33.5,8.6,68.4,11.8,101.6,21.3c13.1,3.7,26.5,16.1,34.1,28.1
		C589.4,724.3,652.5,758.2,714.8,746z"/>
</g>
</svg>
