<?xml version="1.0" standalone="no"?>
<!DOCTYPE svg PUBLIC "-//W3C//DTD SVG 20010904//EN"
 "http://www.w3.org/TR/2001/REC-SVG-20010904/DTD/svg10.dtd">
<svg version="1.0" xmlns="http://www.w3.org/2000/svg"
 width="1280.000000pt" height="853.000000pt" viewBox="0 0 1280.000000 853.000000"
 preserveAspectRatio="xMidYMid meet">
<metadata>
Created by potrace 1.15, written by Peter Selinger 2001-2017
</metadata>
<g transform="translate(0.000000,853.000000) scale(0.100000,-0.100000)"
fill="#000000" stroke="none">
<path d="M1810 7737 c-135 -41 -247 -116 -325 -216 -83 -110 -110 -190 -103
-313 6 -99 53 -222 105 -274 81 -82 253 -56 352 52 46 50 51 74 21 104 -26 26
-70 27 -70 2 0 -24 -34 -60 -64 -68 -38 -9 -122 39 -154 90 -15 23 -32 41 -39
39 -12 -4 -33 48 -33 84 0 37 76 177 126 232 84 93 243 149 392 138 427 -32
733 -421 709 -901 -7 -145 -14 -188 -31 -201 -7 -6 -17 -21 -21 -35 -4 -14
-21 -60 -37 -102 l-30 -77 -47 -7 c-644 -90 -1250 -291 -1639 -544 -407 -264
-685 -635 -768 -1025 -42 -196 -49 -400 -22 -565 90 -535 189 -874 353 -1200
46 -91 46 -93 34 -141 -16 -62 -1 -117 43 -154 25 -21 39 -26 64 -22 30 5 34
1 83 -69 43 -61 50 -77 41 -93 -30 -56 2 -171 51 -186 12 -4 34 -21 48 -39 38
-45 161 -166 206 -203 71 -56 93 -73 99 -73 3 0 38 -21 78 -47 176 -113 460
-227 728 -292 120 -29 340 -67 520 -90 102 -13 475 -31 654 -31 l128 0 -7 -33
c-3 -17 -9 -90 -12 -160 -5 -124 -4 -129 22 -183 38 -77 81 -98 178 -89 270
27 486 209 622 523 l34 77 63 19 c272 85 592 194 833 285 163 62 174 63 175
17 0 -10 4 -35 9 -55 6 -20 17 -70 27 -111 9 -41 29 -113 45 -160 123 -372
295 -576 555 -655 97 -30 216 -34 252 -9 29 20 64 77 83 134 20 64 17 308 -6
425 -9 50 -19 99 -21 109 -20 107 -122 413 -188 563 l-35 83 27 14 c15 7 196
82 402 164 206 83 436 176 510 206 74 30 191 76 260 104 69 27 316 126 550
220 817 328 1206 475 1620 611 362 120 365 121 505 155 167 41 262 57 384 63
96 4 124 2 161 -12 46 -18 111 -23 540 -44 458 -23 539 -24 720 -7 175 16 197
19 278 37 71 16 223 69 287 102 137 68 287 187 430 340 l95 102 -258 7 c-639
16 -1064 96 -1387 261 -99 51 -133 74 -196 136 -85 85 -147 194 -156 275 -3
26 -9 48 -13 51 -3 2 -33 -37 -65 -88 -202 -317 -450 -518 -731 -591 -82 -21
-298 -22 -385 -2 -340 79 -686 277 -1330 762 -473 355 -845 583 -1140 697 -71
27 -220 75 -259 82 -14 3 -38 7 -55 10 -16 4 -77 21 -135 40 -330 106 -746
202 -1125 260 -55 9 -127 20 -160 25 -54 8 -100 14 -269 35 -26 4 -71 8 -100
10 -28 3 -69 7 -91 10 -117 15 -426 35 -700 46 -302 11 -347 10 -890 -17 -67
-3 -269 -20 -357 -30 -69 -8 -69 -6 -37 96 23 72 24 79 40 169 18 102 5 327
-24 431 -54 188 -52 171 -33 246 25 100 53 149 122 214 105 98 212 115 331 54
63 -32 123 -100 123 -140 0 -41 -29 -87 -51 -81 -10 3 -22 1 -25 -4 -11 -18
-45 -9 -55 15 -19 41 -74 23 -78 -26 -1 -5 6 -8 14 -8 8 0 20 -10 26 -22 17
-32 28 -38 80 -38 126 0 191 137 126 266 -51 101 -137 148 -267 148 -77 0 -92
-3 -160 -36 -110 -54 -182 -122 -229 -219 l-39 -80 -45 63 c-170 237 -410 369
-692 383 -85 5 -111 2 -175 -18z"/>
</g>
</svg>
