<?xml version="1.0" standalone="no"?>
<!DOCTYPE svg PUBLIC "-//W3C//DTD SVG 20010904//EN"
 "http://www.w3.org/TR/2001/REC-SVG-20010904/DTD/svg10.dtd">
<svg version="1.0" xmlns="http://www.w3.org/2000/svg"
 width="1280.000000pt" height="640.000000pt" viewBox="0 0 1280.000000 640.000000"
 preserveAspectRatio="xMidYMid meet">
<metadata>
Created by potrace 1.15, written by Peter Selinger 2001-2017
</metadata>
<g transform="translate(0.000000,640.000000) scale(0.100000,-0.100000)"
fill="#000000" stroke="none">
<path d="M6873 5541 c-217 -79 -491 -263 -716 -481 -162 -156 -263 -277 -379
-450 -50 -74 -102 -141 -116 -149 -116 -62 -667 -258 -972 -345 -302 -86 -737
-187 -1100 -256 -1349 -255 -1771 -378 -2155 -628 -138 -90 -228 -167 -391
-335 -142 -146 -153 -155 -227 -186 -42 -17 -193 -65 -335 -106 -414 -120
-482 -154 -482 -244 0 -78 76 -173 181 -226 145 -74 217 -86 584 -95 406 -11
481 -25 888 -169 260 -92 371 -122 647 -175 410 -78 726 -121 1104 -152 l198
-15 177 -124 c263 -184 401 -270 556 -345 308 -151 576 -210 949 -210 201 0
299 13 328 42 17 17 18 22 5 41 -8 12 -65 48 -128 81 -226 116 -387 235 -584
430 l-120 119 159 23 c533 77 1041 222 1476 424 324 150 730 347 1180 572 502
251 669 339 999 525 405 229 742 373 1326 563 138 45 361 120 498 166 l247 83
268 -139 c509 -266 816 -383 1167 -445 125 -23 350 -30 460 -16 137 18 256 63
232 87 -3 4 -44 19 -91 35 -185 62 -468 200 -631 307 -92 61 -150 116 -250
237 -139 169 -217 226 -328 241 -40 6 -45 9 -35 21 7 8 13 34 14 57 4 75 -16
134 -67 203 -61 80 -75 107 -94 180 -52 198 -31 505 41 616 14 21 24 48 22 60
-3 20 -9 22 -59 22 -148 -1 -399 -197 -526 -410 -29 -48 -74 -139 -100 -203
-26 -64 -66 -157 -89 -207 -47 -107 -5 -100 -344 -51 -642 92 -1186 136 -1684
136 -168 0 -352 -5 -416 -12 -159 -17 -658 -14 -985 6 -148 9 -316 16 -372 16
l-103 0 0 79 c0 211 70 431 184 581 74 97 108 163 104 203 -3 28 -7 32 -33 34
-16 2 -54 -6 -82 -16z"/>
</g>
</svg>
