<?xml version="1.0" standalone="no"?>
<!DOCTYPE svg PUBLIC "-//W3C//DTD SVG 20010904//EN"
 "http://www.w3.org/TR/2001/REC-SVG-20010904/DTD/svg10.dtd">
<svg version="1.0" xmlns="http://www.w3.org/2000/svg"
 width="1280.000000pt" height="640.000000pt" viewBox="0 0 1280.000000 640.000000"
 preserveAspectRatio="xMidYMid meet">
<metadata>
Created by potrace 1.15, written by Peter Selinger 2001-2017
</metadata>
<g transform="translate(0.000000,640.000000) scale(0.100000,-0.100000)"
fill="#000000" stroke="none">
<path d="M6405 6355 c-22 -8 -51 -14 -64 -14 -13 -1 -45 -11 -71 -23 -38 -17
-50 -28 -54 -51 -7 -36 2 -76 22 -99 14 -16 13 -18 0 -18 -9 0 -18 -9 -21 -21
-3 -11 -15 -23 -26 -26 -12 -3 -21 -11 -21 -17 0 -13 62 -61 155 -118 33 -21
58 -38 55 -38 -3 0 -41 14 -83 30 -43 17 -93 30 -112 30 -33 0 -65 -21 -65
-42 0 -5 -6 -8 -12 -5 -47 19 -48 19 -48 1 0 -46 101 -143 247 -237 56 -37
104 -71 108 -77 8 -14 -55 -40 -97 -40 -18 0 -109 16 -203 35 -93 19 -176 33
-182 30 -7 -2 -13 -15 -13 -29 0 -18 -11 -31 -44 -50 -49 -29 -61 -48 -45 -78
6 -11 8 -22 6 -25 -3 -2 -31 0 -63 6 -72 14 -87 4 -61 -41 10 -17 16 -31 15
-32 -52 -21 -163 -87 -173 -103 -10 -15 -29 -24 -62 -29 -56 -8 -80 -19 -109
-50 -18 -19 -29 -21 -64 -17 -37 5 -41 4 -39 -13 5 -29 -51 -121 -121 -199
-86 -94 -99 -104 -225 -170 -194 -101 -210 -115 -180 -161 18 -28 138 -128
189 -159 114 -68 185 -120 174 -126 -33 -17 -169 -31 -253 -26 -161 11 -202
29 -435 195 -316 223 -402 287 -578 429 -510 412 -812 616 -1113 754 -190 87
-860 356 -989 397 -243 77 -575 132 -795 132 -145 -1 -175 -8 -229 -61 -37
-36 -46 -50 -45 -79 0 -19 6 -46 14 -60 8 -14 14 -39 15 -57 0 -21 8 -38 25
-51 30 -24 31 -28 5 -35 -31 -8 -24 -31 26 -76 60 -56 56 -74 -17 -82 -96 -10
-102 -26 -28 -66 29 -16 61 -34 73 -40 12 -7 30 -13 41 -13 11 0 42 -9 70 -19
27 -11 91 -32 140 -46 106 -31 229 -78 320 -121 17 -8 91 -37 165 -64 l135
-49 -297 6 c-292 6 -301 6 -498 -23 -262 -38 -263 -42 -27 -119 94 -31 191
-67 214 -80 58 -32 308 -103 598 -170 55 -12 156 -39 225 -58 69 -20 200 -56
293 -81 122 -33 177 -53 202 -73 19 -15 33 -28 31 -30 -1 -1 -63 9 -137 23
-73 13 -165 29 -204 35 -38 6 -92 17 -120 24 -27 8 -108 24 -180 35 -71 12
-184 38 -250 57 -161 46 -209 51 -260 23 -22 -12 -71 -30 -109 -39 -38 -9 -71
-22 -74 -30 -3 -10 13 -11 85 -6 78 6 96 5 136 -13 26 -12 58 -36 74 -59 77
-103 170 -193 200 -193 6 0 1 -11 -12 -25 -14 -13 -25 -29 -25 -34 0 -14 34
-31 62 -31 13 0 52 -11 87 -24 60 -22 63 -24 43 -35 -12 -6 -22 -18 -22 -26 0
-8 -4 -15 -10 -15 -16 0 -12 -77 6 -94 8 -9 19 -16 23 -16 19 0 65 -55 63 -74
-2 -16 5 -24 28 -33 47 -18 39 -41 -17 -48 -177 -22 -306 -70 -311 -117 -3
-22 4 -32 35 -52 47 -32 279 -109 399 -133 49 -10 90 -21 92 -25 2 -5 12 -8
21 -8 10 0 36 -13 57 -29 22 -15 58 -34 79 -41 46 -15 123 -49 112 -50 -4 0
-71 -9 -150 -19 -78 -11 -167 -23 -197 -26 -129 -15 -501 -68 -574 -81 -81
-16 -143 -41 -165 -67 -6 -9 -8 -17 -4 -20 4 -2 206 0 448 6 334 7 478 6 600
-3 187 -14 228 -24 140 -34 -243 -25 -535 -58 -562 -64 -59 -12 -36 -27 49
-32 l83 -5 -54 -18 c-30 -9 -66 -17 -80 -17 -42 0 -245 -53 -256 -67 -22 -28
-317 -104 -537 -138 -89 -14 -165 -30 -169 -36 -3 -6 -57 -15 -120 -20 -110
-9 -225 -24 -261 -35 -24 -7 -23 -31 2 -44 27 -15 130 -34 326 -61 135 -19
220 -24 564 -28 399 -6 404 -6 365 -24 -21 -10 -105 -52 -185 -95 -80 -42
-160 -80 -178 -84 -17 -4 -76 -28 -130 -52 -56 -25 -126 -49 -167 -55 -153
-25 -645 -171 -691 -206 -19 -13 -19 -14 1 -20 11 -4 39 -17 62 -28 l42 -22
-100 -51 c-112 -57 -149 -87 -149 -119 0 -21 -6 -22 -87 -28 -147 -9 -180 -36
-89 -69 26 -10 59 -27 74 -38 15 -11 56 -25 92 -31 62 -11 90 -23 90 -38 0 -4
-34 -22 -76 -41 -80 -35 -134 -79 -134 -110 0 -20 61 -42 150 -54 25 -4 86
-27 135 -51 99 -50 281 -95 378 -95 149 1 532 95 937 230 162 55 345 113 405
130 213 60 332 103 505 182 96 45 263 121 370 170 390 179 1079 442 1227 468
99 18 326 8 424 -18 84 -23 259 -93 259 -104 0 -5 -14 -8 -31 -8 -27 0 -109
-37 -133 -61 -6 -5 -19 -9 -30 -9 -28 0 -84 -46 -88 -72 -2 -13 -21 -34 -45
-51 -42 -28 -54 -52 -31 -59 6 -2 -4 -14 -23 -25 -19 -12 -44 -33 -56 -47 -16
-18 -42 -29 -102 -42 -44 -9 -86 -21 -93 -26 -19 -12 28 -45 77 -54 l40 -7
-38 -13 c-21 -8 -73 -20 -115 -29 -106 -21 -153 -36 -149 -49 2 -6 18 -12 35
-14 18 -2 32 -5 32 -7 0 -3 -9 -22 -20 -43 -17 -32 -35 -47 -93 -76 -40 -20
-78 -36 -84 -36 -22 0 -158 -59 -161 -70 -6 -18 21 -42 78 -68 88 -41 195 -35
525 27 341 64 379 70 384 65 2 -2 -1 -15 -7 -29 -26 -57 -20 -63 76 -71 101
-8 448 9 642 32 156 19 259 11 401 -30 141 -41 441 -115 551 -136 57 -11 137
-29 178 -40 95 -25 194 -47 290 -65 162 -29 200 -37 200 -44 0 -4 -15 -21 -32
-38 -25 -23 -46 -33 -85 -38 -64 -8 -75 -22 -39 -50 26 -20 26 -22 8 -38 -10
-9 -35 -23 -56 -32 -50 -21 -47 -52 7 -70 21 -7 41 -16 45 -19 8 -8 -86 -104
-118 -121 -14 -7 -45 -16 -70 -19 -25 -4 -54 -11 -65 -16 -11 -4 -28 -11 -37
-14 -26 -8 -22 -31 8 -45 l27 -12 -29 -30 c-16 -17 -71 -65 -121 -106 -51 -42
-93 -81 -93 -88 0 -26 33 -39 113 -43 77 -4 85 -2 122 24 35 24 125 53 258 83
45 11 45 12 -51 -92 -66 -72 -122 -144 -122 -159 0 -16 58 -7 163 26 74 24
119 33 142 29 l34 -5 -81 -77 c-95 -89 -138 -144 -138 -178 0 -26 7 -26 79 3
49 21 50 17 6 -21 -81 -71 -142 -114 -235 -165 -170 -91 -164 -102 52 -90 145
8 166 12 295 54 76 24 164 52 196 61 32 8 98 33 147 54 148 65 225 115 625
410 44 33 166 140 272 239 237 221 272 240 528 282 61 10 160 29 220 41 61 12
133 23 160 26 28 2 59 8 70 13 11 5 31 11 45 13 14 3 52 13 85 22 89 25 201
55 280 75 66 17 160 44 268 76 110 33 142 -59 101 -291 -22 -123 -22 -299 0
-405 10 -47 21 -101 25 -120 l7 -35 62 2 c33 1 73 7 88 15 62 30 190 256 229
404 8 32 29 167 46 299 17 132 34 259 38 282 10 49 35 92 59 100 35 11 167 78
170 86 2 4 36 24 75 43 40 19 79 41 87 48 8 7 31 19 50 26 19 8 49 24 66 37
17 13 36 23 42 23 7 0 12 5 12 11 0 5 15 17 33 25 17 8 51 29 74 47 22 17 65
50 95 73 29 23 59 48 66 57 8 9 30 21 50 28 20 7 48 20 61 30 13 11 30 19 37
19 8 0 14 6 14 13 0 7 16 21 35 30 20 9 63 38 98 65 66 50 137 101 165 117 44
26 102 68 102 74 0 4 18 15 40 25 22 10 40 21 40 26 0 4 30 28 68 53 37 24 80
56 95 71 15 14 32 26 38 26 5 0 17 8 27 19 9 10 58 62 107 115 50 54 113 121
142 151 28 29 54 62 58 74 3 12 17 34 31 50 13 16 40 62 60 102 19 41 48 97
64 124 26 46 28 56 24 129 -4 59 -1 83 10 95 8 9 17 50 21 96 6 72 5 83 -14
107 -19 24 -20 31 -9 71 30 116 -84 245 -252 285 -58 13 -81 25 -128 65 -52
44 -101 71 -247 137 -27 12 -92 47 -144 77 -100 59 -174 94 -431 208 -196 86
-313 144 -435 216 -399 234 -712 397 -925 482 -63 25 -173 62 -245 81 -210 58
-688 130 -1030 156 -182 14 -262 39 -385 117 -47 30 -134 81 -195 114 -60 33
-168 98 -240 144 -71 47 -180 110 -241 140 -111 55 -408 165 -445 165 -21 0
-25 -21 -9 -51 6 -10 7 -19 3 -19 -9 0 -181 43 -358 90 -103 27 -592 122 -613
119 -4 -1 -25 -7 -47 -14z"/>
</g>
</svg>
