<?xml version="1.0" standalone="no"?>
<!DOCTYPE svg PUBLIC "-//W3C//DTD SVG 20010904//EN"
 "http://www.w3.org/TR/2001/REC-SVG-20010904/DTD/svg10.dtd">
<svg version="1.0" xmlns="http://www.w3.org/2000/svg"
 width="915.000000pt" height="1280.000000pt" viewBox="0 0 915.000000 1280.000000"
 preserveAspectRatio="xMidYMid meet">
<metadata>
Created by potrace 1.15, written by Peter Selinger 2001-2017
</metadata>
<g transform="translate(0.000000,1280.000000) scale(0.100000,-0.100000)"
fill="#000000" stroke="none">
<path d="M4276 12789 c-1229 -88 -2376 -699 -3171 -1692 -438 -546 -763 -1203
-929 -1877 -102 -413 -132 -652 -158 -1240 -24 -535 -15 -685 47 -815 29 -60
43 -77 118 -138 124 -101 231 -138 422 -144 164 -6 283 12 493 77 97 30 421
147 593 215 18 7 109 -114 188 -254 l50 -87 -40 -144 c-128 -466 -188 -897
-196 -1409 -6 -335 2 -518 36 -804 l17 -149 -106 -166 c-59 -92 -167 -262
-242 -378 -365 -566 -523 -927 -584 -1334 -24 -156 -24 -444 0 -605 70 -478
270 -884 609 -1232 l60 -61 -48 -69 c-27 -37 -65 -88 -84 -113 -20 -25 -28
-39 -18 -31 9 7 49 56 88 107 40 52 73 94 75 94 2 0 39 -29 83 -64 166 -134
354 -247 541 -324 101 -42 290 -105 296 -99 2 2 -48 21 -111 41 -233 77 -517
239 -712 406 l-82 70 59 92 c78 120 206 372 264 520 55 141 116 346 145 489
12 57 24 115 27 129 5 21 13 9 58 -75 204 -391 529 -683 945 -850 114 -45 318
-105 356 -104 11 0 -36 16 -105 35 -315 88 -588 248 -820 483 -145 147 -230
265 -328 460 l-77 155 5 120 c10 248 3 848 -12 994 l-15 144 37 102 c78 215
196 458 409 841 218 392 347 662 423 885 84 249 117 421 125 661 21 585 -194
1155 -589 1565 -49 50 -88 96 -88 102 0 21 44 23 245 13 302 -16 301 -16 334
-65 48 -69 168 -294 227 -426 178 -393 285 -781 340 -1240 22 -180 25 -649 6
-813 l-13 -108 -107 -122 c-353 -401 -509 -714 -537 -1077 -7 -92 6 -230 32
-325 21 -80 83 -213 133 -286 l41 -60 3 -212 c5 -293 41 -473 145 -714 175
-405 506 -743 898 -919 43 -19 87 -39 98 -44 66 -29 312 -96 322 -87 2 3 -29
13 -69 22 -94 23 -257 84 -361 136 -551 276 -919 834 -956 1449 -4 69 -5 158
-2 198 l6 74 25 -27 c99 -109 311 -257 630 -440 113 -65 248 -146 300 -180
l95 -61 63 -129 c105 -215 203 -354 372 -529 l105 -108 -35 -30 c-66 -56 -243
-170 -342 -219 -110 -55 -131 -73 -35 -30 92 41 219 114 323 187 l92 63 6 -27
c3 -15 9 -77 12 -139 15 -244 -50 -486 -191 -705 -26 -40 -40 -66 -32 -58 37
36 129 200 166 293 65 168 76 235 76 450 0 103 3 187 6 187 4 0 12 -7 19 -16
25 -29 223 -155 322 -205 173 -87 300 -132 487 -175 154 -35 158 -28 6 10
-283 72 -524 188 -740 355 -32 25 -66 51 -74 57 -13 10 -10 16 19 40 138 112
316 310 420 464 33 50 62 90 64 90 1 0 39 -44 84 -98 90 -109 218 -236 332
-328 81 -66 240 -176 283 -195 l27 -12 0 -117 c0 -205 46 -390 140 -567 l49
-92 -62 -45 c-104 -74 -177 -118 -302 -183 -66 -34 -115 -63 -110 -63 24 0
257 123 369 195 l119 76 25 -28 24 -28 -21 31 -20 31 87 69 c109 85 298 275
377 377 56 73 62 78 90 72 17 -3 57 -8 90 -10 57 -4 56 -4 -18 9 -43 8 -81 16
-83 19 -3 2 23 47 56 98 93 142 213 393 269 564 78 236 109 418 127 735 l6
105 55 34 c260 159 473 380 573 594 63 135 84 237 84 407 0 219 -48 406 -160
619 -114 216 -243 383 -574 741 -109 118 -239 264 -289 324 -102 123 -100 116
-81 276 25 197 90 461 165 667 56 152 215 465 309 607 97 145 210 289 306 389
l65 68 165 -56 c202 -69 395 -119 517 -135 111 -15 283 -8 367 15 132 35 280
129 338 213 43 63 77 176 90 303 13 132 -4 783 -27 999 -95 899 -428 1757
-959 2465 -176 236 -434 513 -664 716 -520 457 -1146 793 -1797 964 -455 120
-957 167 -1419 134z m2430 -5510 c-378 -407 -504 -1006 -325 -1543 37 -111
122 -278 203 -399 l63 -94 1 -143 c5 -360 53 -634 243 -1388 150 -594 207
-885 224 -1152 l6 -95 -133 -79 c-191 -114 -401 -253 -489 -324 -101 -82 -235
-224 -293 -310 -89 -135 -170 -336 -191 -475 -4 -26 -10 -47 -14 -47 -11 0
-151 98 -239 167 -142 113 -316 297 -421 445 l-34 47 56 113 c105 216 168 418
209 680 20 126 22 181 23 468 0 371 -5 427 -90 1032 -30 213 -55 396 -55 407
0 11 83 130 184 264 100 135 222 304 270 376 101 152 219 375 269 511 133 358
142 730 26 1090 -29 90 -112 272 -160 352 l-22 37 27 35 c15 20 37 38 49 41
112 25 664 80 686 68 2 -1 -31 -39 -73 -84z m519 30 c139 -34 216 -61 206 -73
-5 -6 -47 -59 -93 -117 -273 -340 -481 -760 -593 -1195 -34 -131 -75 -345 -75
-390 0 -44 -16 -25 -63 74 -98 206 -131 356 -131 592 1 240 42 416 144 620 90
179 224 338 390 463 83 63 68 61 215 26z m-5172 -43 c18 -14 18 -17 -6 -83
-14 -37 -28 -76 -32 -86 -6 -13 -19 0 -61 65 -30 45 -53 82 -51 84 5 5 103 33
117 33 8 0 23 -6 33 -13z m1434 -46 l315 -50 47 -40 c104 -88 214 -236 286
-385 105 -214 140 -369 139 -610 0 -244 -32 -390 -133 -600 -85 -177 -260
-418 -440 -605 l-72 -75 5 40 c14 107 18 532 7 681 -43 566 -199 1134 -439
1599 -27 52 -44 95 -39 95 6 0 152 -23 324 -50z m2273 1 c0 -5 -21 -45 -47
-88 -123 -208 -258 -521 -332 -777 -147 -503 -173 -991 -86 -1615 l15 -104
-58 -91 c-226 -352 -342 -647 -399 -1016 -21 -141 -24 -490 -5 -625 47 -329
163 -650 334 -929 l61 -99 -18 -31 c-48 -84 -151 -231 -223 -316 -90 -108
-249 -263 -264 -258 -6 2 -25 49 -43 104 -77 234 -222 445 -410 595 -54 43
-57 48 -89 149 -67 204 -81 306 -81 570 1 250 8 313 61 525 64 253 149 472
388 999 235 517 320 737 382 990 115 472 93 948 -65 1391 -57 159 -162 374
-232 476 l-18 25 178 12 c194 13 455 46 711 91 176 31 240 37 240 22z m-1495
-107 l107 -7 54 -73 c378 -511 512 -1169 369 -1809 -55 -243 -138 -477 -335
-940 -168 -394 -222 -529 -280 -705 -106 -321 -150 -565 -150 -839 0 -228 21
-365 96 -630 6 -21 -1 -18 -68 27 -42 28 -158 101 -258 162 -352 214 -507 330
-624 467 l-53 62 13 88 c24 149 100 436 188 708 168 517 207 654 251 878 l23
118 124 127 c441 457 608 718 694 1087 26 111 28 136 28 330 0 179 -3 225 -22
311 -45 207 -128 404 -235 562 -61 88 -65 97 -43 89 8 -3 62 -9 121 -13z
m-1964 -71 c251 -260 431 -605 504 -968 67 -333 52 -666 -46 -997 -61 -208
-153 -416 -409 -923 -141 -280 -280 -568 -308 -640 -28 -71 -53 -123 -56 -115
-2 8 -29 213 -60 455 l-55 440 54 90 c230 390 348 709 402 1090 22 151 22 512
0 660 -31 218 -107 502 -175 653 l-19 43 39 107 c22 59 44 119 50 135 5 15 13
27 17 27 4 0 32 -26 62 -57z m3643 -100 c56 -113 100 -239 128 -366 30 -138
32 -436 5 -571 -43 -214 -153 -466 -309 -711 -93 -145 -330 -483 -339 -484 -9
-1 -18 90 -29 303 -31 607 90 1165 368 1699 69 133 118 217 127 217 3 0 25
-39 49 -87z m-3856 -508 c124 -417 133 -854 27 -1271 -45 -175 -91 -297 -183
-484 l-76 -155 -7 55 c-4 30 -10 165 -14 300 -12 398 22 808 101 1215 30 156
107 456 115 448 4 -4 21 -53 37 -108z m5151 -1840 c358 -375 523 -654 577
-976 20 -119 15 -286 -11 -384 -23 -84 -105 -248 -164 -326 -89 -116 -346
-345 -422 -374 -12 -5 -17 19 -27 147 -21 271 -66 522 -183 1037 -149 653
-209 1017 -209 1265 l0 68 153 -158 c84 -88 213 -222 286 -299z m-3834 -276
c-35 -151 -71 -282 -156 -567 -86 -290 -153 -553 -177 -694 -10 -59 -20 -110
-23 -113 -10 -9 -85 164 -105 240 -24 92 -25 317 -1 423 43 187 130 374 258
553 80 112 220 282 226 275 2 -2 -8 -55 -22 -117z m1999 -239 c65 -388 91
-585 107 -820 32 -477 -43 -934 -205 -1259 l-32 -63 -41 68 c-142 241 -244
529 -290 824 -24 157 -24 471 1 630 50 324 166 632 339 904 43 66 52 76 59 60
4 -10 32 -165 62 -344z m-3590 -205 c20 -132 53 -343 72 -468 l35 -229 -25
-111 c-45 -198 -51 -255 -50 -462 0 -230 18 -353 80 -547 42 -130 43 -157 13
-338 -42 -253 -123 -516 -235 -765 -57 -126 -185 -357 -201 -362 -14 -5 -136
126 -212 225 -188 248 -318 534 -381 844 -115 556 -22 1055 299 1618 101 177
552 854 561 843 4 -4 24 -116 44 -248z m150 -1072 c17 -227 26 -498 20 -593
l-8 -105 -18 75 c-31 133 -41 263 -34 455 7 189 13 255 26 255 4 0 10 -39 14
-87z m5156 -604 c-14 -254 -49 -435 -126 -662 -66 -193 -193 -445 -286 -570
-12 -16 -20 -16 -140 17 -138 38 -308 104 -429 167 -116 61 -111 52 -94 132
37 172 112 335 219 478 142 188 306 311 791 591 53 31 61 33 67 18 3 -10 3
-87 -2 -171z m-2747 -372 c130 -129 222 -270 284 -437 l24 -65 -46 45 c-52 50
-150 172 -213 267 -58 85 -156 273 -143 273 5 0 48 -38 94 -83z m1778 -711
c125 -60 339 -134 461 -161 l78 -17 -27 -36 c-98 -133 -305 -349 -419 -439
-49 -38 -45 -41 -102 72 -75 151 -122 347 -122 510 0 69 7 125 15 125 1 0 53
-24 116 -54z"/>
<path d="M6963 903 c9 -2 23 -2 30 0 6 3 -1 5 -18 5 -16 0 -22 -2 -12 -5z"/>
<path d="M3403 763 c9 -2 23 -2 30 0 6 3 -1 5 -18 5 -16 0 -22 -2 -12 -5z"/>
<path d="M3458 753 c7 -3 16 -2 19 1 4 3 -2 6 -13 5 -11 0 -14 -3 -6 -6z"/>
<path d="M1299 303 c-13 -16 -12 -17 4 -4 16 13 21 21 13 21 -2 0 -10 -8 -17
-17z"/>
<path d="M5670 120 c-8 -5 -10 -10 -5 -10 6 0 17 5 25 10 8 5 11 10 5 10 -5 0
-17 -5 -25 -10z"/>
</g>
</svg>
