<?xml version="1.0" standalone="no"?>
<!DOCTYPE svg PUBLIC "-//W3C//DTD SVG 20010904//EN"
 "http://www.w3.org/TR/2001/REC-SVG-20010904/DTD/svg10.dtd">
<svg version="1.0" xmlns="http://www.w3.org/2000/svg"
 width="738.000000pt" height="1280.000000pt" viewBox="0 0 738.000000 1280.000000"
 preserveAspectRatio="xMidYMid meet">
<metadata>
Created by potrace 1.15, written by Peter Selinger 2001-2017
</metadata>
<g transform="translate(0.000000,1280.000000) scale(0.100000,-0.100000)"
fill="#000000" stroke="none">
<path d="M4266 12404 c-100 -31 -177 -96 -373 -313 l-124 -139 -203 82 c-112
45 -237 102 -277 126 -41 24 -103 59 -138 77 -113 59 -185 39 -249 -67 -42
-70 -66 -154 -102 -349 -39 -207 -53 -250 -92 -288 -64 -60 -88 -67 -268 -73
-154 -5 -170 -7 -237 -35 -40 -16 -73 -34 -73 -40 0 -5 14 -50 30 -100 26 -78
40 -102 106 -180 64 -76 317 -357 361 -401 11 -11 -5 -32 -100 -131 -308 -320
-362 -369 -467 -426 -163 -89 -335 -103 -575 -47 -96 22 -176 34 -253 37 -111
5 -113 5 -177 -26 -74 -37 -159 -119 -176 -169 -7 -20 -9 -71 -7 -121 6 -115
36 -185 137 -320 133 -179 167 -261 158 -390 -2 -42 -13 -98 -22 -126 -24 -65
-25 -179 -2 -221 44 -83 125 -110 302 -101 193 11 279 48 384 167 162 183 229
231 375 269 152 40 242 33 781 -64 390 -69 602 -42 1183 155 160 55 292 96
292 92 0 -11 -60 -153 -104 -243 -52 -110 -102 -160 -286 -283 -304 -203 -559
-348 -915 -521 -268 -130 -421 -215 -595 -330 -577 -383 -970 -911 -1079
-1451 -79 -390 -44 -719 110 -1013 133 -255 318 -470 664 -773 523 -459 838
-816 1096 -1245 229 -380 284 -544 283 -843 -1 -235 -40 -410 -138 -615 -108
-224 -285 -398 -492 -485 -315 -131 -711 -144 -1039 -35 -179 60 -334 155
-470 290 -196 193 -295 418 -327 741 -20 210 15 451 93 640 89 213 283 413
456 469 79 26 182 18 255 -19 75 -38 164 -128 222 -227 26 -44 58 -86 70 -94
42 -28 187 -75 244 -81 72 -6 99 8 131 66 20 35 26 63 29 130 l4 85 -51 101
c-94 183 -228 325 -404 427 -130 75 -216 99 -382 104 -123 4 -156 2 -270 -22
-289 -59 -483 -135 -603 -237 -34 -29 -94 -93 -134 -143 -201 -253 -344 -536
-402 -797 -36 -162 -45 -241 -46 -398 0 -316 72 -622 217 -920 114 -232 254
-423 445 -604 432 -412 1005 -615 1625 -576 525 33 987 180 1421 451 263 164
485 373 648 609 221 320 357 722 410 1210 22 201 15 534 -15 725 -47 304 -108
543 -228 880 -246 697 -298 1039 -212 1405 26 114 129 426 191 580 103 256
327 658 361 648 7 -3 73 -72 147 -154 311 -344 359 -379 515 -379 78 0 98 4
146 27 142 70 418 369 611 662 325 495 422 1004 286 1509 -18 71 -23 78 -42
73 -11 -2 -131 -25 -266 -50 -135 -26 -307 -58 -383 -72 -76 -15 -140 -24
-144 -21 -10 11 119 130 202 186 179 122 387 284 425 332 56 71 68 116 45 174
-30 81 -106 129 -412 260 -62 26 -113 51 -113 55 0 8 154 142 272 238 136 110
188 186 188 272 0 63 -25 114 -79 163 -58 52 -95 74 -338 198 -120 61 -219
112 -221 114 -1 1 50 85 113 186 138 219 164 269 171 335 8 63 -11 103 -66
143 -67 48 -179 77 -495 126 -165 26 -302 49 -305 51 -2 3 25 62 62 132 98
188 121 258 122 367 1 76 -2 95 -21 126 -27 43 -91 76 -163 85 -61 7 -193 -10
-244 -31 -39 -16 -501 -107 -522 -103 -9 2 -37 60 -68 143 -67 177 -138 316
-182 355 -32 27 -41 30 -102 29 -37 0 -89 -7 -116 -15z"/>
</g>
</svg>
