<?xml version="1.0" standalone="no"?>
<!DOCTYPE svg PUBLIC "-//W3C//DTD SVG 20010904//EN"
 "http://www.w3.org/TR/2001/REC-SVG-20010904/DTD/svg10.dtd">
<svg version="1.0" xmlns="http://www.w3.org/2000/svg"
 width="1278.000000pt" height="1280.000000pt" viewBox="0 0 1278.000000 1280.000000"
 preserveAspectRatio="xMidYMid meet">
<metadata>
Created by potrace 1.15, written by Peter Selinger 2001-2017
</metadata>
<g transform="translate(0.000000,1280.000000) scale(0.100000,-0.100000)"
fill="#000000" stroke="none">
<path d="M6260 12781 c-47 -10 -121 -33 -165 -51 -142 -56 -456 -216 -587
-298 -165 -103 -237 -127 -373 -126 -76 1 -131 9 -228 33 -232 57 -363 73
-537 68 -211 -6 -317 -39 -480 -146 -150 -98 -365 -349 -519 -604 -46 -76 -65
-97 -134 -149 -144 -107 -156 -111 -357 -119 -184 -8 -255 -17 -383 -50 -340
-86 -632 -279 -875 -576 -78 -96 -193 -274 -271 -421 -39 -73 -85 -154 -102
-180 -53 -77 -188 -204 -274 -256 -128 -78 -223 -153 -335 -266 -202 -201
-321 -426 -381 -716 -29 -143 -36 -407 -15 -588 18 -158 20 -241 6 -306 -6
-25 -42 -108 -80 -185 -151 -301 -172 -545 -83 -964 31 -145 36 -189 40 -351
6 -212 -6 -316 -61 -538 -55 -224 -61 -265 -61 -447 0 -235 30 -367 128 -560
96 -192 163 -266 1312 -1436 650 -661 737 -761 784 -901 17 -51 21 -86 21
-207 1 -439 138 -800 414 -1088 195 -205 435 -353 721 -447 190 -62 326 -87
602 -111 365 -31 585 -107 797 -273 290 -228 443 -317 696 -405 231 -80 430
-111 710 -111 294 0 514 37 779 129 243 85 395 164 674 352 407 274 608 338
980 311 502 -36 930 111 1265 436 315 306 520 714 626 1248 45 225 107 335
243 428 386 264 765 603 1158 1031 376 411 539 628 659 879 176 367 226 732
176 1290 -14 148 -11 271 21 1028 16 370 4 473 -84 667 -53 118 -98 257 -123
375 -15 73 -18 144 -19 495 -1 462 -10 564 -71 804 -53 208 -141 394 -253 535
-81 101 -223 230 -334 302 -56 37 -120 78 -142 93 -61 40 -222 199 -270 266
-24 33 -68 107 -99 163 -92 169 -152 250 -275 372 -223 223 -433 327 -866 430
-358 86 -422 103 -499 131 -121 44 -167 79 -249 188 -39 53 -117 141 -173 196
-436 434 -1019 554 -1759 364 -150 -39 -287 -49 -366 -26 -30 9 -80 33 -111
54 -250 170 -280 186 -411 224 -106 30 -295 35 -407 10z m211 -681 c30 -5 88
-26 129 -46 134 -65 281 -239 340 -403 l23 -63 -6 -496 c-4 -273 -12 -693 -17
-932 -5 -239 -14 -637 -20 -885 -5 -247 -17 -754 -26 -1125 -8 -371 -16 -862
-17 -1090 -2 -394 -1 -427 26 -653 15 -131 27 -243 27 -248 0 -5 17 -9 38 -9
l39 0 36 263 c20 144 57 474 82 732 103 1083 294 3145 365 3935 22 250 45 478
51 505 32 165 139 262 330 300 121 25 357 30 467 11 284 -50 461 -175 620
-438 211 -350 510 -500 1072 -538 269 -19 378 -42 513 -113 181 -93 359 -320
412 -526 37 -146 25 -295 -39 -459 -19 -48 -111 -249 -206 -447 -404 -844
-813 -1715 -1649 -3509 -415 -890 -529 -1143 -556 -1236 -19 -64 -35 -121 -35
-127 0 -10 77 -49 84 -42 7 7 152 263 193 339 23 41 224 428 448 860 1320
2543 1907 3665 1961 3745 36 55 103 133 230 269 l83 89 108 -99 c236 -217 331
-317 363 -386 42 -89 69 -278 77 -524 9 -284 -18 -495 -93 -724 -53 -162 -115
-281 -310 -595 -289 -465 -976 -1620 -1045 -1757 -32 -63 -119 -285 -119 -303
0 -5 19 -22 43 -37 33 -21 45 -25 53 -15 7 7 373 531 815 1166 l803 1155 44
-135 c45 -133 45 -135 49 -304 4 -142 1 -192 -16 -294 -46 -271 -164 -533
-356 -790 -82 -110 -109 -141 -301 -354 -182 -201 -369 -423 -720 -860 -294
-365 -316 -398 -331 -505 l-6 -45 74 51 c221 152 426 341 820 750 306 317 461
468 624 602 106 88 194 154 200 149 9 -10 -32 -363 -49 -420 -37 -122 -205
-472 -322 -671 -243 -412 -565 -783 -937 -1080 -54 -43 -176 -133 -270 -200
-494 -349 -928 -667 -1877 -1376 -863 -645 -1014 -756 -1008 -740 3 7 78 145
167 307 88 162 161 297 161 300 0 4 -14 15 -30 24 -30 18 -30 18 -54 -10 -13
-15 -211 -260 -441 -543 -229 -283 -422 -515 -429 -515 -15 0 -96 48 -96 58 0
4 97 247 216 540 119 292 295 725 390 960 96 236 172 432 169 436 -6 10 -64
35 -69 30 -1 -2 -63 -103 -136 -224 -202 -334 -223 -375 -662 -1325 -121 -261
-233 -493 -248 -516 -120 -173 -347 -260 -545 -209 -187 49 -242 101 -500 478
-59 86 -113 157 -119 157 -6 0 -25 -9 -42 -19 l-30 -19 24 -137 c21 -116 23
-138 11 -146 -8 -5 -17 -9 -20 -9 -4 0 -247 380 -540 845 -294 464 -538 844
-542 845 -11 0 -116 -63 -117 -70 0 -3 215 -383 479 -845 263 -462 477 -841
476 -843 -1 -1 -65 40 -141 92 -126 86 -164 121 -409 367 -707 710 -1353 1251
-2753 2303 -316 237 -535 440 -741 686 -304 363 -623 877 -677 1090 -26 101
-16 243 24 345 32 80 88 177 107 181 6 1 104 -104 219 -234 115 -130 425 -481
690 -779 l480 -541 28 14 c15 8 28 17 28 20 0 3 -49 103 -109 222 -97 191
-140 262 -370 602 -676 1002 -921 1371 -959 1445 -69 138 -130 365 -119 446 6
48 95 239 111 239 29 -1 214 -101 242 -131 45 -50 350 -476 959 -1344 131
-187 273 -385 314 -440 72 -96 230 -269 238 -262 6 7 -66 235 -119 377 -162
433 -443 920 -815 1412 -266 352 -461 741 -558 1110 -60 231 -79 356 -79 523
0 126 3 163 22 230 54 187 163 313 371 430 362 202 601 453 783 825 132 270
230 376 438 474 151 71 368 124 589 142 71 6 83 4 114 -15 54 -33 142 -134
170 -193 27 -58 260 -758 502 -1507 86 -266 182 -549 213 -628 l56 -144 31 7
c72 16 73 17 64 81 -65 471 -60 444 -269 1358 -196 854 -220 972 -220 1068 0
198 94 401 265 572 94 95 199 163 310 202 75 26 92 28 280 31 301 5 419 -19
508 -106 96 -93 109 -142 162 -620 57 -499 90 -762 220 -1752 113 -854 113
-852 176 -899 17 -13 33 -21 35 -18 13 12 16 389 5 622 -6 143 -27 625 -46
1070 -20 446 -42 943 -50 1105 -18 367 -18 467 0 553 42 198 137 297 382 396
244 99 379 126 514 101z m-3146 -9822 c28 -14 73 -50 100 -79 56 -60 209 -259
199 -259 -16 0 -733 324 -728 329 13 14 216 40 294 37 68 -2 95 -8 135 -28z
m6019 -81 c16 -12 13 -22 -48 -133 -36 -66 -66 -123 -66 -126 0 -3 84 29 188
72 103 42 206 84 229 93 l41 16 21 -35 c12 -19 21 -39 21 -43 0 -4 -172 -91
-382 -193 -352 -170 -383 -187 -380 -208 1 -13 4 -26 7 -28 2 -2 73 5 157 17
209 29 207 29 161 -12 -89 -79 -203 -140 -324 -173 -99 -28 -368 -26 -514 5
-60 12 -111 24 -113 25 -3 4 969 734 979 735 3 1 13 -5 23 -12z m-6144 -260
c41 -14 146 -46 233 -72 261 -76 378 -124 502 -208 57 -39 185 -153 185 -166
0 -3 -160 -6 -355 -6 -195 0 -355 2 -354 5 0 3 34 34 75 69 41 35 71 67 67 71
-4 4 -125 60 -268 125 -143 65 -279 127 -302 139 l-42 21 26 57 25 57 67 -33
c36 -18 100 -45 141 -59z"/>
</g>
</svg>
