<?xml version="1.0" standalone="no"?>
<!DOCTYPE svg PUBLIC "-//W3C//DTD SVG 20010904//EN"
 "http://www.w3.org/TR/2001/REC-SVG-20010904/DTD/svg10.dtd">
<svg version="1.0" xmlns="http://www.w3.org/2000/svg"
 width="1280.000000pt" height="1161.000000pt" viewBox="0 0 1280.000000 1161.000000"
 preserveAspectRatio="xMidYMid meet">
<metadata>
Created by potrace 1.15, written by Peter Selinger 2001-2017
</metadata>
<g transform="translate(0.000000,1161.000000) scale(0.100000,-0.100000)"
fill="#000000" stroke="none">
<path d="M7170 11565 c-69 -20 -191 -89 -239 -135 -150 -147 -397 -568 -600
-1027 -191 -432 -244 -548 -331 -728 -105 -218 -156 -305 -291 -500 -160 -232
-253 -396 -343 -606 -31 -71 -45 -92 -80 -117 -24 -17 -116 -99 -206 -181
l-163 -150 -51 5 c-138 13 -196 53 -491 344 -369 363 -505 473 -760 621 -215
123 -385 189 -825 319 -483 143 -609 224 -804 514 -85 126 -169 211 -244 246
-65 31 -148 42 -213 29 -30 -6 -60 -11 -66 -12 -7 0 -13 -4 -13 -10 0 -5 -22
35 -49 90 -84 166 -211 295 -341 344 -116 44 -239 14 -321 -79 -73 -84 -79
-102 -68 -228 32 -372 137 -745 387 -1378 l107 -270 85 -86 c176 -178 373
-293 693 -405 65 -23 114 -45 110 -49 -4 -4 0 -4 8 -1 8 3 26 1 40 -5 23 -10
23 -10 -6 -6 -39 7 89 -54 220 -104 55 -21 186 -66 290 -100 105 -35 210 -72
235 -82 l44 -19 -19 22 -20 23 32 -22 c50 -35 160 -159 218 -247 68 -101 150
-274 205 -427 54 -154 150 -458 150 -478 0 -9 4 -20 9 -25 4 -6 29 -70 55
-144 69 -199 76 -320 24 -449 -58 -141 -160 -251 -458 -492 -216 -174 -318
-275 -399 -395 -140 -205 -298 -385 -484 -553 -141 -127 -456 -392 -466 -390
-19 2 -31 -4 -31 -16 0 -7 -62 -65 -137 -128 -300 -251 -400 -347 -492 -473
-72 -97 -241 -265 -268 -265 -16 0 -28 -10 -39 -32 -9 -19 -65 -73 -132 -128
-64 -52 -168 -146 -232 -207 -65 -62 -122 -113 -129 -113 -6 0 -11 -6 -11 -13
0 -7 -18 -38 -41 -68 -52 -69 -103 -161 -133 -237 l-23 -59 22 -55 c31 -77 84
-155 141 -209 100 -94 181 -124 344 -124 194 0 318 34 759 211 156 63 309 121
340 130 135 40 685 287 1011 456 547 283 931 524 1460 914 308 227 501 363
621 438 61 37 85 59 118 109 22 34 59 82 82 107 23 25 36 37 29 28 -19 -27 -9
-22 67 27 37 25 75 45 83 46 10 0 8 3 -5 8 -16 7 -11 10 26 16 95 14 180 -34
253 -143 40 -61 82 -149 101 -212 4 -14 32 -67 62 -118 126 -214 272 -547 397
-904 55 -155 64 -190 59 -229 -4 -38 -2 -50 15 -67 11 -11 24 -21 29 -23 5 -2
37 -87 72 -189 50 -147 73 -200 113 -260 57 -86 150 -271 152 -305 0 -13 4
-21 7 -20 10 7 41 -94 33 -106 -4 -7 -3 -9 3 -6 7 4 29 -47 58 -131 116 -341
195 -542 246 -626 13 -22 15 -33 7 -43 -12 -15 6 -43 28 -43 7 0 27 -21 45
-46 17 -25 82 -98 143 -162 127 -132 174 -194 338 -442 131 -199 154 -229 245
-323 190 -194 391 -234 644 -128 109 46 102 35 89 137 -17 142 -47 282 -116
532 -35 129 -64 237 -64 240 0 4 5 0 10 -8 9 -13 15 -9 40 20 93 108 95 217
16 745 -60 403 -77 544 -101 825 -59 709 -229 1469 -406 1823 -22 42 -80 146
-131 230 -125 208 -192 339 -217 421 -22 71 -28 189 -11 216 6 9 5 17 -2 21
-5 4 21 10 58 14 98 10 366 56 669 115 431 84 563 100 880 110 508 16 626 41
1255 270 167 61 299 98 430 121 133 22 527 106 710 150 385 93 736 210 1003
333 l77 35 0 44 c0 131 -50 249 -145 344 -37 37 -54 58 -39 48 l27 -18 -24 34
c-34 49 -58 72 -109 106 -143 95 -415 166 -875 228 -66 9 -133 20 -150 25 -28
9 -29 9 -11 -5 25 -19 9 -19 -24 0 -14 8 -54 15 -90 16 -48 1 -57 3 -35 8 27
6 26 8 -20 13 -27 3 -93 14 -145 24 -79 16 -142 19 -378 19 -190 -1 -285 -4
-290 -11 -4 -7 -79 -14 -192 -18 -226 -9 -395 -22 -520 -40 -83 -13 -101 -13
-153 1 -54 13 -63 13 -102 -1 -38 -15 -70 -16 -306 -6 -274 11 -473 26 -404
29 36 2 30 5 -55 30 -52 15 -248 76 -435 135 -412 130 -499 169 -601 270 -123
123 -172 268 -161 485 8 169 32 259 187 721 133 397 194 596 293 960 85 311
113 495 103 675 -8 137 -26 248 -36 220 -4 -10 -10 37 -13 105 -4 69 -16 168
-27 220 -11 52 -20 103 -20 114 0 39 -105 230 -157 287 -87 93 -203 127 -323
94z m-2120 -7029 c0 -2 -8 -10 -17 -17 -16 -13 -17 -12 -4 4 13 16 21 21 21
13z"/>
</g>
</svg>
