<?xml version="1.0" standalone="no"?>
<!DOCTYPE svg PUBLIC "-//W3C//DTD SVG 20010904//EN"
 "http://www.w3.org/TR/2001/REC-SVG-20010904/DTD/svg10.dtd">
<svg version="1.0" xmlns="http://www.w3.org/2000/svg"
 width="1280.000000pt" height="1099.000000pt" viewBox="0 0 1280.000000 1099.000000"
 preserveAspectRatio="xMidYMid meet">
<metadata>
Created by potrace 1.15, written by Peter Selinger 2001-2017
</metadata>
<g transform="translate(0.000000,1099.000000) scale(0.100000,-0.100000)"
fill="#000000" stroke="none">
<path d="M11700 10976 c-232 -56 -295 -60 -680 -42 -237 10 -332 -2 -480 -65
-328 -140 -651 -413 -931 -789 -154 -205 -218 -349 -296 -655 -27 -108 -36
-167 -40 -260 l-5 -120 -48 47 c-51 49 -144 98 -270 141 -265 92 -506 105
-965 51 -71 -8 -272 -28 -447 -44 -380 -35 -523 -55 -858 -121 -917 -181
-1328 -313 -1789 -578 -184 -105 -322 -196 -721 -476 -384 -270 -653 -471
-920 -689 -536 -438 -704 -610 -1250 -1281 -112 -137 -251 -306 -310 -375
-329 -387 -414 -522 -767 -1225 -118 -236 -253 -496 -299 -576 -262 -463 -304
-609 -304 -1067 l0 -172 -54 -108 c-29 -59 -80 -150 -112 -202 -98 -161 -149
-277 -149 -338 0 -48 4 -57 32 -82 48 -43 99 -53 248 -47 110 4 145 9 226 36
190 62 423 199 594 349 210 185 517 491 667 665 l61 71 335 122 335 122 636
-5 c723 -6 1458 12 1716 43 l50 5 -50 -43 c-302 -261 -524 -511 -609 -683 -19
-38 -57 -151 -85 -250 -29 -99 -65 -209 -81 -244 -70 -149 -176 -282 -461
-576 -298 -307 -330 -350 -521 -705 -123 -229 -173 -342 -194 -442 -34 -161
14 -312 113 -354 69 -29 195 -7 405 71 260 97 517 241 933 524 597 407 802
540 1070 696 940 549 1440 933 2665 2044 242 220 782 754 915 906 48 55 126
131 174 168 310 245 676 648 868 957 142 230 310 613 404 920 25 82 39 107 39
71 0 -36 113 -137 232 -209 96 -57 115 -65 209 -82 175 -31 191 -44 215 -171
21 -112 34 -133 89 -154 91 -35 186 -5 354 113 58 42 149 105 203 141 309 211
492 447 587 756 71 233 68 429 -10 575 -60 112 -214 233 -368 286 -126 44
-353 53 -556 23 -38 -6 -155 -31 -260 -56 -182 -43 -194 -44 -292 -38 -57 4
-103 10 -103 14 0 20 70 113 125 166 83 80 189 141 409 235 335 143 389 176
579 353 246 229 407 431 509 634 69 140 76 176 58 303 -7 48 -9 105 -6 125 9
48 69 113 155 166 78 49 112 77 147 119 25 29 26 37 31 177 8 243 -20 376
-111 530 -98 168 -236 313 -400 424 -224 151 -431 213 -586 175z"/>
</g>
</svg>
