<?xml version="1.0" encoding="utf-8"?>
<!-- Svg Vector Icons : http://www.onlinewebfonts.com/icon -->
<!DOCTYPE svg PUBLIC "-//W3C//DTD SVG 1.1//EN" "http://www.w3.org/Graphics/SVG/1.1/DTD/svg11.dtd">
<svg version="1.1" xmlns="http://www.w3.org/2000/svg" xmlns:xlink="http://www.w3.org/1999/xlink" x="0px" y="0px" viewBox="0 0 256 256" enable-background="new 0 0 256 256" xml:space="preserve">
<metadata> Svg Vector Icons : http://www.onlinewebfonts.com/icon </metadata>
<g><g><g><path stroke-width="2" fill-opacity="0" stroke="#000000"  d="M56.6,246c-6.1,0-11.3-2.1-15.6-6.4c-4.3-4.3-6.4-9.5-6.4-15.6v-24.8c0-5.6,1.9-10.5,5.7-14.6c3.8-4.1,8.4-6.5,14-7.2V78.6c-3.6-0.4-6.9-1.6-9.9-3.6c-3-2-5.4-4.6-7.1-7.8c-1.7-3.2-2.6-6.6-2.6-10.4V32c0-6.1,2.1-11.3,6.4-15.6c4.3-4.3,9.5-6.4,15.6-6.4h24.8c6.1,0,11.3,2.1,15.6,6.4c4.3,4.3,6.4,9.5,6.4,15.6v24.8c0,5.6-1.9,10.5-5.7,14.6c-3.8,4.1-8.4,6.5-14,7.2V128h41.5l27.7-28c-0.3-1.5-0.4-2.8-0.4-3.8V71.3c0-6.1,2.1-11.3,6.4-15.6c4.3-4.3,9.5-6.4,15.6-6.4h24.8c3,0,5.9,0.6,8.5,1.8c2.7,1.2,5,2.7,7,4.7c2,2,3.5,4.3,4.7,7c1.2,2.7,1.8,5.6,1.8,8.5v24.8c0,6.1-2.1,11.3-6.4,15.6c-4.3,4.3-9.5,6.4-15.6,6.4h-22.9l-34.6,35c-2.9,2.9-6.4,4.3-10.4,4.3H83.8v19.8c5.6,0.7,10.2,3.1,14,7.2c3.8,4.1,5.7,9,5.7,14.6V224c0,6.1-2.1,11.3-6.4,15.6c-4.3,4.3-9.5,6.4-15.6,6.4L56.6,246L56.6,246z M56.6,59.2h24.8c0.7,0,1.2-0.2,1.7-0.7c0.5-0.5,0.7-1,0.7-1.7V32c0-0.6-0.2-1.2-0.7-1.7c-0.5-0.5-1-0.7-1.7-0.7H56.6c-0.7,0-1.2,0.2-1.7,0.7c-0.5,0.5-0.7,1-0.7,1.7v24.8c0,0.7,0.2,1.2,0.7,1.7C55.4,58.9,55.9,59.2,56.6,59.2z M174.6,98.5h24.8c0.7,0,1.2-0.2,1.7-0.7c0.5-0.5,0.7-1,0.7-1.7V71.3c0-0.7-0.2-1.2-0.7-1.7c-0.5-0.5-1-0.7-1.7-0.7h-24.8c-0.6,0-1.2,0.2-1.7,0.7c-0.5,0.5-0.7,1-0.7,1.7v24.8c0,0.7,0.2,1.2,0.7,1.7C173.4,98.2,174,98.5,174.6,98.5z M56.6,226.3h24.8c0.7,0,1.2-0.2,1.7-0.7s0.7-1,0.7-1.7v-24.8c0-0.7-0.2-1.2-0.7-1.7c-0.5-0.5-1-0.7-1.7-0.7H56.6c-0.7,0-1.2,0.2-1.7,0.7c-0.5,0.5-0.7,1-0.7,1.7V224c0,0.7,0.2,1.2,0.7,1.7C55.4,226.1,55.9,226.3,56.6,226.3z"/></g></g></g>
</svg>